<svg xmlns="http://www.w3.org/2000/svg" width="20" height="20" viewBox="0 0 20 20" fill="none" class="ml8 m-ml4">
  <path d="M10 0C4.486 0 0 4.486 0 10C0 15.514 4.486 20 10 20C15.514 20 20 15.514 20 10C20 4.486 15.514 0 10 0Z" fill="var(--primary)"></path>
  <path fill-rule="evenodd" clip-rule="evenodd" d="M7.68306 14.5044C7.43898 14.2604 7.43898 13.8646 7.68306 13.6206L11.6161 9.6875L7.68306 5.75444C7.43898 5.51036 7.43898 5.11464 7.68306 4.87056C7.92714 4.62648 8.32286 4.62648 8.56694 4.87056L12.9419 9.24556C13.186 9.48964 13.186 9.88536 12.9419 10.1294L8.56694 14.5044C8.32286 14.7485 7.92714 14.7485 7.68306 14.5044Z" fill="white"></path>
</svg>