<svg width="25" height="24" viewBox="0 0 25 24" xmlns="http://www.w3.org/2000/svg" color="#146EB4"><path fill-rule="evenodd" clip-rule="evenodd" d="M3.08283 6L5.84781 2.31336C5.97462 2.14428 6.16333 2.03483 6.36994 2.00701L6.47453 2H17.5344C17.7458 2 17.9466 2.0853 18.0928 2.23389L18.1612 2.31336L20.9261 6L20.9587 6.04671C20.9654 6.05713 20.9719 6.06772 20.9781 6.07848L20.9261 6C20.9561 6.03994 20.982 6.08242 21.0036 6.12681C21.0108 6.14109 21.0175 6.15592 21.0237 6.17098C21.0284 6.18292 21.033 6.19482 21.0373 6.20682C21.0448 6.22728 21.0513 6.24826 21.057 6.2696C21.0654 6.3021 21.0719 6.3354 21.0763 6.36909L21.0828 6.47005V19.3733C21.0828 20.7682 19.9955 21.9091 18.6222 21.9948L18.4561 22H5.55288C4.15797 22 3.01702 20.9127 2.93132 19.5394L2.92615 19.3733V6.47005C2.92615 6.36611 2.94682 6.26389 2.98626 6.16909C2.9921 6.15455 2.99853 6.14034 3.00536 6.12636C3.01228 6.11256 3.01967 6.09852 3.02748 6.08468C3.03227 6.07606 3.0334 6.07413 3.03454 6.07221L3.08283 6ZM15.6911 9.37327C15.2585 9.37327 14.9077 9.72402 14.9077 10.1567C14.9077 11.7601 13.6079 13.0599 12.0045 13.0599C10.4011 13.0599 9.10126 11.7601 9.10126 10.1567C9.10126 9.72402 8.75052 9.37327 8.31785 9.37327C7.88519 9.37327 7.53444 9.72402 7.53444 10.1567C7.53444 12.6254 9.53575 14.6267 12.0045 14.6267C14.4732 14.6267 16.4745 12.6254 16.4745 10.1567C16.4745 9.72402 16.1238 9.37327 15.6911 9.37327ZM17.1427 3.56682H6.86532L5.27415 5.686H18.7321L17.1427 3.56682Z" fill="#146EB4"></path></svg>