<svg width="24" height="24" viewBox="0 0 24 24" fill="#146EB4" xmlns="http://www.w3.org/2000/svg" alt="Categories" color="#146EB4" text="">
                <path fill-rule="evenodd" clip-rule="evenodd" d="M20.5012 13C21.3297 13 22.0012 13.6716 22.0012 14.5V20.5C22.0012 21.3284 21.3297 22 20.5012 22H14.5012C13.6728 22 13.0012 21.3284 13.0012 20.5V14.5C13.0012 13.6716 13.6728 13 14.5012 13H20.5012ZM9.50415 13C10.3326 13 11.0042 13.6716 11.0042 14.5V20.5C11.0042 21.3284 10.3326 22 9.50415 22H3.50415C2.67572 22 2.00415 21.3284 2.00415 20.5V14.5C2.00415 13.6716 2.67572 13 3.50415 13H9.50415ZM9.50415 2C10.3326 2 11.0042 2.67157 11.0042 3.5V9.5C11.0042 10.3284 10.3326 11 9.50415 11H3.50415C2.67572 11 2.00415 10.3284 2.00415 9.5V3.5C2.00415 2.67157 2.67572 2 3.50415 2H9.50415ZM20.5012 2C21.3297 2 22.0012 2.67157 22.0012 3.5V9.5C22.0012 10.3284 21.3297 11 20.5012 11H14.5012C13.6728 11 13.0012 10.3284 13.0012 9.5V3.5C13.0012 2.67157 13.6728 2 14.5012 2H20.5012Z" fill="#146EB4">
                </path>
</svg>