<svg class="matrixIcon" width="57" height="56" viewBox="0 0 57 56" fill="none" xmlns="http://www.w3.org/2000/svg">
                <path fill-rule="evenodd" clip-rule="evenodd" d="M45.566 26.2C46.6154 26.2 47.466 27.0507 47.466 28.1V39.0379C47.466 40.6396 46.1676 41.9379 44.566 41.9379H43.8865C42.7267 41.9379 41.7865 42.8781 41.7865 44.0379V46.4085L38.0169 42.5671C37.622 42.1647 37.0819 41.9379 36.5181 41.9379H31.566C30.5167 41.9379 29.666 41.0873 29.666 40.0379V36.6C29.666 35.9925 29.1735 35.5 28.566 35.5C27.9585 35.5 27.466 35.9925 27.466 36.6V40.0379C27.466 42.3023 29.3016 44.1379 31.566 44.1379H36.4761L40.3877 48.124C41.7047 49.4662 43.9865 48.5337 43.9865 46.6532V44.1379H44.566C47.3827 44.1379 49.666 41.8546 49.666 39.0379V28.1C49.666 25.8356 47.8304 24 45.566 24H41.1429C40.5354 24 40.0429 24.4925 40.0429 25.1C40.0429 25.7075 40.5354 26.2 41.1429 26.2H45.566Z" fill="#FFA730"></path>
                <path d="M7.66602 13.1C7.66602 10.2833 9.94936 8 12.766 8H35.766C38.5827 8 40.866 10.2833 40.866 13.1V31.5039C40.866 34.3205 38.5827 36.6038 35.766 36.6038H25.164L18.2702 43.4976C16.9472 44.8206 14.6852 43.8836 14.6852 42.0127V36.6038H12.766C9.94937 36.6038 7.66602 34.3205 7.66602 31.5038V13.1Z" fill="#FF4B34"></path>
                <path d="M23.7383 26.2949C24.5 26.2949 24.8516 25.8027 24.9102 25.0527C24.9688 23.9043 25.3672 23.3066 26.8789 22.416C28.4258 21.4902 29.3398 20.248 29.3398 18.4316C29.3398 15.8418 27.2188 14.0488 24.1602 14.0488C21.8164 14.0488 20.0352 15.0332 19.3203 16.6504C19.1094 17.1074 19.0039 17.5176 19.0039 18.0215C19.0039 18.7363 19.4141 19.1699 20.1406 19.1699C20.7266 19.1699 21.0898 18.9121 21.3242 18.1855C21.6992 16.9082 22.6367 16.2051 24.0547 16.2051C25.6133 16.2051 26.6797 17.1543 26.6797 18.5371C26.6797 19.6855 26.1758 20.3887 24.7578 21.2441C23.2344 22.1582 22.5078 23.1543 22.5078 24.6543V24.9238C22.5078 25.6973 22.918 26.2949 23.7383 26.2949ZM23.7383 31.2754C24.6172 31.2754 25.2852 30.6191 25.2852 29.7637C25.2852 28.9082 24.6172 28.252 23.7383 28.252C22.8828 28.252 22.2031 28.9082 22.2031 29.7637C22.2031 30.6191 22.8828 31.2754 23.7383 31.2754Z" fill="white"></path>
                <path d="M37.7656 19.5V31.5C37.7656 32.6046 36.8702 33.5 35.7656 33.5H30.2656" stroke="#FF624B" stroke-width="2" stroke-linecap="round"></path>
                <path d="M45.666 36V38C45.666 39.1046 44.7706 40 43.666 40H43.166" stroke="#FFC34C" stroke-width="1.5" stroke-linecap="round"></path>
                <circle cx="11.166" cy="31.5" r="1.5" fill="#FF624B"></circle>
                <circle cx="12.666" cy="29" r="1" fill="#FF624B"></circle>
              </svg>