<svg class="matrixIcon" width="57" height="56" viewBox="0 0 57 56" fill="none" xmlns="http://www.w3.org/2000/svg">
                <path fill-rule="evenodd" clip-rule="evenodd" d="M43.6663 19H38.333C37.2284 19 36.333 19.8954 36.333 21V41H39.433C39.8963 38.7178 41.9141 37 44.333 37C46.752 37 48.7697 38.7178 49.233 41H50.333C51.4376 41 52.333 40.1046 52.333 39V30.625C52.333 30.218 52.2089 29.8208 51.9771 29.4862L45.3105 19.8612C44.9369 19.3218 44.3225 19 43.6663 19ZM42.6032 22H40.333C39.7807 22 39.333 22.4477 39.333 23V27C39.333 27.5523 39.7807 28 40.333 28H43.9997H45.3495C45.8927 28 46.333 27.5597 46.333 27.0165C46.333 26.8196 46.2739 26.6272 46.1633 26.4642L43.4306 22.4384C43.2445 22.1642 42.9346 22 42.6032 22Z" fill="#FFA730"></path>
                <circle cx="44.333" cy="42" r="3.2" fill="#1A181E" stroke="#FFC34C" stroke-width="1.6"></circle>
                <path d="M20.533 42C20.533 43.7673 19.1003 45.2 17.333 45.2C15.5657 45.2 14.133 43.7673 14.133 42C14.133 40.2327 15.5657 38.8 17.333 38.8C19.1003 38.8 20.533 40.2327 20.533 42Z" fill="#1A181E" stroke="#FFC34C" stroke-width="1.6"></path>
                <path fill-rule="evenodd" clip-rule="evenodd" d="M8.33301 10C7.78072 10 7.33301 10.4477 7.33301 11V40C7.33301 40.5523 7.78072 41 8.33301 41H12.433C12.8963 38.7178 14.9141 37 17.333 37C19.752 37 21.7697 38.7178 22.233 41H34.333V14C34.333 11.7909 32.5421 10 30.333 10H8.33301Z" fill="#FF4B34"></path>
                <line x1="8.33301" y1="34.2" x2="34.333" y2="34.2" stroke="#CC3C2A" stroke-width="1.6"></line>
                <line x1="36.333" y1="34.2" x2="52.333" y2="34.2" stroke="#D78B26" stroke-width="1.6"></line>
                <line x1="5.13301" y1="26.2" x2="17.533" y2="26.2" stroke="white" stroke-width="1.6" stroke-linecap="round"></line>
                <line x1="10.133" y1="19.2" x2="20.533" y2="19.2" stroke="white" stroke-width="1.6" stroke-linecap="round"></line>
              </svg>