<svg width="24" height="24" viewBox="0 0 24 24" fill="none" xmlns="http://www.w3.org/2000/svg">
<path d="M21.0197 7.85144L13.0519 1.82586C12.7617 1.61411 12.4117 1.5 12.0524 1.5C11.6931 1.5 11.3431 1.61411 11.0529 1.82586L2.93352 7.86092C2.72402 8.01479 2.55387 8.21601 2.43696 8.44817C2.32006 8.68033 2.25971 8.93685 2.26085 9.19678V19.8363C2.25698 20.1737 2.35614 20.5042 2.54508 20.7837C2.60411 20.8741 2.67413 20.9568 2.75351 21.03C2.90621 21.1868 3.08893 21.3113 3.29077 21.3959C3.49261 21.4806 3.70944 21.5237 3.9283 21.5227H8.39064C8.58543 21.5241 8.77849 21.486 8.95813 21.4107C9.13777 21.3354 9.30026 21.2244 9.43577 21.0844C9.57127 20.9445 9.67699 20.7785 9.7465 20.5966C9.81601 20.4146 9.84789 20.2204 9.84019 20.0258L9.78335 14.9381C9.78585 14.6558 9.89975 14.386 10.1002 14.1872C10.3007 13.9885 10.5716 13.877 10.8539 13.877H13.0519C13.3333 13.877 13.6032 13.9888 13.8022 14.1878C14.0012 14.3868 14.113 14.6567 14.113 14.9381V20.0258C14.113 20.4077 14.2647 20.774 14.5348 21.0441C14.8049 21.3141 15.1712 21.4658 15.5531 21.4658H20.0723C20.5145 21.4658 20.9386 21.2902 21.2513 20.9775C21.564 20.6647 21.7397 20.2406 21.7397 19.7984V9.17783C21.7332 8.91554 21.6646 8.65854 21.5394 8.42796C21.4142 8.19738 21.2361 7.99979 21.0197 7.85144Z" fill="#146EB4"/>
</svg>
