<svg width="24" height="24" viewBox="0 0 24 24" fill="none" xmlns="http://www.w3.org/2000/svg">
<path d="M19.959 21.51H15.5314C15.13 21.51 14.7448 21.3512 14.4601 21.0682C14.1754 20.7853 14.0142 20.4011 14.0117 19.9997V13.9774H9.99679V19.9997C9.99431 20.4011 9.83311 20.7853 9.54839 21.0682C9.26366 21.3512 8.87855 21.51 8.47713 21.51H4.04948C3.58674 21.51 3.14294 21.3262 2.81573 20.999C2.48852 20.6717 2.30469 20.228 2.30469 19.7652V9.21203C2.30505 8.94037 2.36885 8.67254 2.49099 8.42988C2.61313 8.18722 2.79025 7.97644 3.00824 7.81432L11.0568 1.84826C11.3587 1.62219 11.7257 1.5 12.1028 1.5C12.4799 1.5 12.8469 1.62219 13.1487 1.84826L21.0378 7.80494C21.2474 7.97382 21.4155 8.18843 21.5293 8.43233C21.6431 8.67622 21.6996 8.94293 21.6944 9.21203V19.7652C21.6957 19.9939 21.6517 20.2206 21.565 20.4322C21.4784 20.6438 21.3507 20.8363 21.1895 20.9984C21.0282 21.1605 20.8365 21.2892 20.6253 21.377C20.4142 21.4648 20.1877 21.51 19.959 21.51ZM15.6252 19.9153H19.9778C20.0159 19.9129 20.0518 19.896 20.0779 19.8682C20.1041 19.8403 20.1186 19.8034 20.1185 19.7652V9.21203C20.1193 9.19005 20.1146 9.16823 20.1047 9.14856C20.0949 9.1289 20.0803 9.11201 20.0622 9.09946L12.1544 3.14278C12.128 3.12503 12.097 3.11556 12.0653 3.11556C12.0335 3.11556 12.0025 3.12503 11.9761 3.14278L3.93692 9.10884C3.91751 9.12292 3.90152 9.1412 3.89016 9.16231C3.87879 9.18343 3.87233 9.20683 3.87125 9.23079V19.7652C3.87125 19.805 3.88707 19.8432 3.91521 19.8713C3.94336 19.8995 3.98154 19.9153 4.02134 19.9153H8.37394V13.8179C8.3764 13.438 8.5284 13.0744 8.79703 12.8058C9.06566 12.5371 9.42929 12.3851 9.80917 12.3827H14.1712C14.3609 12.3814 14.549 12.4176 14.7247 12.489C14.9005 12.5605 15.0604 12.6659 15.1954 12.7991C15.3305 12.9324 15.4379 13.091 15.5116 13.2658C15.5854 13.4406 15.624 13.6282 15.6252 13.8179V19.9153Z" fill="#989898"/>
</svg>
