<svg class="matrixSocialIcon" color="white" id="instagram" width="24" height="24" viewBox="0 0 24 24" xmlns="http://www.w3.org/2000/svg">
                    <path fill-rule="evenodd" clip-rule="evenodd" d="M7 2H17C19.7614 2 22 4.23858 22 7V17C22 19.7614 19.7614 22 17 22H7C4.23858 22 2 19.7614 2 17V7C2 4.23858 4.23858 2 7 2ZM16.65 6.49999C16.65 6.03055 17.0306 5.64999 17.5 5.64999H17.51C17.9795 5.64999 18.36 6.03055 18.36 6.49999C18.36 6.96944 17.9795 7.34999 17.51 7.34999H17.5C17.0306 7.34999 16.65 6.96944 16.65 6.49999ZM12.5127 8.79134C11.8469 8.69261 11.1669 8.80633 10.5695 9.11633C9.97203 9.42633 9.48755 9.91682 9.18494 10.518C8.88233 11.1193 8.777 11.8006 8.88393 12.4651C8.99086 13.1296 9.30461 13.7435 9.78055 14.2195C10.2565 14.6954 10.8704 15.0092 11.5349 15.1161C12.1994 15.223 12.8808 15.1177 13.482 14.8151C14.0832 14.5125 14.5737 14.028 14.8837 13.4306C15.1937 12.8331 15.3074 12.1531 15.2087 11.4873C15.108 10.8082 14.7915 10.1795 14.306 9.69399C13.8206 9.20851 13.1918 8.89205 12.5127 8.79134ZM9.83255 7.69614C10.7287 7.23114 11.7487 7.06055 12.7474 7.20865C13.7661 7.35971 14.7092 7.8344 15.4374 8.56262C16.1656 9.29083 16.6403 10.2339 16.7914 11.2526C16.9395 12.2513 16.7689 13.2713 16.3039 14.1675C15.8389 15.0636 15.1031 15.7903 14.2013 16.2443C13.2995 16.6982 12.2775 16.8562 11.2807 16.6958C10.2839 16.5354 9.36308 16.0647 8.64918 15.3508C7.93527 14.6369 7.46465 13.7161 7.30425 12.7193C7.14386 11.7225 7.30185 10.7005 7.75576 9.7987C8.20968 8.89687 8.9364 8.16114 9.83255 7.69614Z" fill="currentColor"></path>
                  </svg>