<svg class="matrixSocialIcon" color="white" id="linkedin" width="24" height="24" viewBox="0 0 24 24" xmlns="http://www.w3.org/2000/svg">
                    <path d="M20.1909 2H3.80909C2.80909 2 2 2.80909 2 3.80909V20.1909C2 21.1909 2.80909 22 3.80909 22H20.1909C21.1909 22 22 21.1909 22 20.1909V3.80909C22 2.80909 21.1909 2 20.1909 2ZM8.19091 19.2727C8.19091 19.5636 7.95455 19.8 7.66364 19.8H5.41818C5.12727 19.8 4.89091 19.5636 4.89091 19.2727V9.87273C4.89091 9.58182 5.12727 9.34545 5.41818 9.34545H7.66364C7.95455 9.34545 8.19091 9.58182 8.19091 9.87273V19.2727ZM6.54545 8.46364C5.37273 8.46364 4.41818 7.50909 4.41818 6.33636C4.41818 5.16364 5.36364 4.2 6.54545 4.2C7.72727 4.2 8.67273 5.15455 8.67273 6.32727C8.67273 7.5 7.71818 8.46364 6.54545 8.46364ZM19.9 19.3091C19.9 19.5727 19.6818 19.7909 19.4182 19.7909H17.0091C16.7455 19.7909 16.5273 19.5727 16.5273 19.3091V14.9091C16.5273 14.2545 16.7182 12.0273 14.8091 12.0273C13.3273 12.0273 13.0273 13.5455 12.9636 14.2364V19.3182C12.9636 19.5818 12.7455 19.8 12.4818 19.8H10.1545C9.89091 19.8 9.67273 19.5818 9.67273 19.3182V9.83636C9.67273 9.57273 9.89091 9.35455 10.1545 9.35455H12.4818C12.7455 9.35455 12.9636 9.57273 12.9636 9.83636V10.6545C13.5091 9.82727 14.3273 9.19091 16.0727 9.19091C19.9273 9.19091 19.9 12.7909 19.9 14.7636V19.3091Z" fill="currentColor"></path>
                  </svg>