<svg width="12" height="15" viewBox="0 0 12 15" fill="none" xmlns="http://www.w3.org/2000/svg">
<path d="M5.22318 10.3954C4.90608 10.2833 4.63882 10.0627 4.46864 9.77259C4.29846 9.48248 4.23631 9.14154 4.29319 8.81005C4.35006 8.47855 4.5223 8.17783 4.77945 7.96105C5.0366 7.74426 5.36211 7.62537 5.69845 7.62537C6.03478 7.62537 6.36029 7.74426 6.61744 7.96105C6.87459 8.17783 7.04684 8.47855 7.10372 8.81005C7.16059 9.14154 7.09844 9.48248 6.92826 9.77259C6.75808 10.0627 6.49081 10.2833 6.17371 10.3954V12.8763C6.17371 13.0023 6.12365 13.1232 6.03452 13.2124C5.94539 13.3015 5.82449 13.3515 5.69845 13.3515C5.5724 13.3515 5.45152 13.3015 5.36239 13.2124C5.27326 13.1232 5.22318 13.0023 5.22318 12.8763V10.3954ZM1.62544 6.11802C1.41119 6.11801 1.19904 6.16037 1.00122 6.24265C0.803388 6.32493 0.623778 6.4455 0.472728 6.59744C0.321668 6.74939 0.202138 6.9297 0.121018 7.128C0.0398981 7.3263 -0.0012319 7.53868 2.8097e-05 7.75293V13.171C-0.000601903 13.3854 0.0410981 13.5979 0.122748 13.7963C0.204388 13.9946 0.324358 14.1748 0.475798 14.3267C0.627238 14.4786 0.807158 14.5991 1.00525 14.6813C1.20334 14.7635 1.41571 14.8059 1.63018 14.8059H9.7715C9.9863 14.8065 10.1992 14.7646 10.3979 14.6827C10.5965 14.6007 10.777 14.4803 10.9289 14.3284C11.0809 14.1765 11.2013 13.996 11.2832 13.7974C11.3652 13.5987 11.407 13.3858 11.4064 13.171V7.75293C11.4064 7.32015 11.2348 6.90503 10.9292 6.59856C10.6236 6.29209 10.209 6.11928 9.7762 6.11802V4.21696C9.7949 3.67006 9.7033 3.125 9.5069 2.61425C9.3105 2.10349 9.0133 1.63748 8.633 1.24399C8.2528 0.850498 7.7972 0.537577 7.29341 0.323858C6.78966 0.11014 6.24804 0 5.70082 0C5.15361 0 4.61199 0.11014 4.10823 0.323858C3.60448 0.537577 3.14889 0.850498 2.76861 1.24399C2.38833 1.63748 2.09113 2.10349 1.89473 2.61425C1.69834 3.125 1.60676 3.67006 1.62544 4.21696V6.11802ZM3.25559 6.11802V4.21696C3.24103 3.88678 3.29349 3.55708 3.40981 3.24772C3.52613 2.93836 3.70389 2.65576 3.93239 2.41696C4.16088 2.17817 4.43538 1.98814 4.73932 1.8583C5.04325 1.72847 5.37032 1.66153 5.70082 1.66153C6.03133 1.66153 6.35841 1.72847 6.66235 1.8583C6.96628 1.98814 7.24076 2.17817 7.46926 2.41696C7.6978 2.65576 7.8755 2.93836 7.9918 3.24772C8.1082 3.55708 8.1606 3.88678 8.1461 4.21696V6.11802H3.25559Z" fill="#4D4D4D"/>
</svg>
