<svg width="24" height="24" viewBox="0 0 24 24" fill="#4d4d4d" xmlns="http://www.w3.org/2000/svg" alt="menu" class="MobileMenu_mobileMenuHamburger__27G0u">
                <path fill-rule="evenodd" clip-rule="evenodd" d="M2.09961 11.9996C2.09961 11.5026 2.50255 11.0996 2.99961 11.0996H20.9996C21.4967 11.0996 21.8996 11.5026 21.8996 11.9996C21.8996 12.4967 21.4967 12.8996 20.9996 12.8996H2.99961C2.50255 12.8996 2.09961 12.4967 2.09961 11.9996Z">
                </path>
                <path fill-rule="evenodd" clip-rule="evenodd" d="M2.09961 5.99961C2.09961 5.50255 2.50255 5.09961 2.99961 5.09961H20.9996C21.4967 5.09961 21.8996 5.50255 21.8996 5.99961C21.8996 6.49667 21.4967 6.89961 20.9996 6.89961H2.99961C2.50255 6.89961 2.09961 6.49667 2.09961 5.99961Z">
                </path>
                <path fill-rule="evenodd" clip-rule="evenodd" d="M2.09961 17.9996C2.09961 17.5026 2.50255 17.0996 2.99961 17.0996H20.9996C21.4967 17.0996 21.8996 17.5026 21.8996 17.9996C21.8996 18.4967 21.4967 18.8996 20.9996 18.8996H2.99961C2.50255 18.8996 2.09961 18.4967 2.09961 17.9996Z">
                </path>
              </svg>