<svg class="matrixIcon" width="56" height="56" viewBox="0 0 56 56" fill="none" xmlns="http://www.w3.org/2000/svg">
                <path d="M50 27H20C18.8954 27 18 27.8954 18 29V48C18 49.1046 18.8954 50 20 50H50C51.1046 50 52 49.1046 52 48V29C52 27.8954 51.1046 27 50 27Z" fill="#FF4B34"></path>
                <g opacity="0.2">
                <path opacity="0.8" d="M52 31.5H18V35.5H52V31.5Z" fill="black"></path>
                </g>
                <path d="M31.7128 7L5.73205 22C4.77547 22.5523 4.44772 23.7755 5 24.7321L15 42.0526C15.5523 43.0091 16.7755 43.3369 17.7321 42.7846L43.7128 27.7846C44.6694 27.2323 44.9971 26.0091 44.4449 25.0526L34.4449 7.73205C33.8926 6.77547 32.6694 6.44772 31.7128 7Z" fill="#FFA730"></path>
                <path d="M33.7035 7.94824L5.55772 24.1982C5.199 24.4053 5.0761 24.864 5.2832 25.2228C5.49031 25.5815 5.949 25.7044 6.30772 25.4973L34.4535 9.24728C34.8123 9.04017 34.9352 8.58148 34.7281 8.22276C34.521 7.86404 34.0623 7.74114 33.7035 7.94824Z" fill="#CD8424"></path>
                <path d="M43.2153 24.4229L15.0694 40.6729C14.7107 40.88 14.5878 41.3387 14.7949 41.6974C15.002 42.0561 15.4607 42.179 15.8194 41.9719L43.9653 25.7219C44.324 25.5148 44.4469 25.0561 44.2398 24.6974C44.0327 24.3387 43.574 24.2157 43.2153 24.4229Z" fill="#CD8424"></path>
                <path fill-rule="evenodd" clip-rule="evenodd" d="M28.1526 30.8415C28.9351 30.3908 29.6209 29.7904 30.1711 29.0744C30.7213 28.3584 31.1251 27.541 31.3591 26.6689C31.5932 25.7968 31.6532 24.8871 31.5354 23.9919C31.4176 23.0966 31.1243 22.2332 30.6726 21.4514C30.221 20.6685 29.6194 19.9824 28.9026 19.4321C28.1857 18.8817 27.3678 18.4781 26.4949 18.2441C25.6219 18.0101 24.7112 17.9503 23.8152 18.0683C22.9192 18.1862 22.0553 18.4794 21.2727 18.9313C20.4899 19.3829 19.8035 19.9845 19.2532 20.7014C18.7028 21.4182 18.2992 22.2364 18.0652 23.1093C17.8312 23.9822 17.7714 24.8927 17.8894 25.7888C18.0073 26.6848 18.3007 27.5489 18.7527 28.3315C19.6664 29.9108 21.17 31.0624 22.9328 31.5331C24.6957 32.0038 26.5732 31.7551 28.1526 30.8415ZM28.8425 32.0414C30.7348 30.9422 32.1135 29.137 32.676 27.0222C33.2385 24.9073 32.9387 22.6555 31.8425 20.7614C30.7433 18.8691 28.9384 17.4904 26.8235 16.9279C24.7086 16.3654 22.4568 16.6652 20.5627 17.7614C18.6711 18.8587 17.2923 20.6623 16.7297 22.7756C16.1672 24.8888 16.467 27.1389 17.5627 29.0314C18.6653 30.9204 20.472 32.2948 22.5867 32.8535C24.7013 33.4121 26.9509 33.1093 28.8425 32.0114V32.0414Z" fill="#CD8424"></path>
                <circle cx="24.7031" cy="24.8896" r="3" fill="white"></circle>
              </svg>