<svg class="matrixSocialIcon" color="white" id="pinterest" width="24" height="24" viewBox="0 0 24 24" xmlns="http://www.w3.org/2000/svg">
                    <path fill="currentColor" d="M21.9957 12.2929C22.1589 6.5864 17.5398 1.91811 11.851 2.00084C6.37576 2.08046 1.95828 6.60225 2.00017 12.0779C2.03024 16.0015 4.32008 19.3869 7.63229 20.9976C7.82388 21.0907 8.04568 20.9459 8.03768 20.7329C8.01353 20.0896 8.03434 19.4017 8.16308 18.8488C8.28979 18.3044 8.78698 16.1991 9.11387 14.816C9.27297 14.1427 9.29217 13.4436 9.16406 12.7637C9.12201 12.5405 9.09156 12.2784 9.09156 11.9872C9.09156 10.5092 9.94822 9.40568 11.0149 9.40568C11.9218 9.40568 12.3598 10.0866 12.3598 10.903C12.3598 11.815 11.7791 13.1785 11.4795 14.4421C11.229 15.5001 12.0101 16.3629 13.0535 16.3629C14.9428 16.3629 16.395 14.3708 16.395 11.4953C16.395 8.95034 14.5662 7.17087 11.955 7.17087C8.93057 7.17087 7.15532 9.43938 7.15532 11.7838C7.15532 12.6973 7.50728 13.677 7.94637 14.2095C8.03317 14.3148 8.04597 14.4071 8.02013 14.5144C7.93944 14.8502 7.76011 15.5722 7.72491 15.7199C7.6785 15.9145 7.57085 15.9557 7.36946 15.8621C6.0418 15.2441 5.21185 13.3032 5.21185 11.7442C5.21185 8.39108 7.64805 5.31183 12.2351 5.31183C15.9225 5.31183 18.788 7.93933 18.788 11.4509C18.788 15.1142 16.4782 18.0624 13.2722 18.0624C12.425 18.0624 11.6177 17.7162 11.143 17.2468C10.9971 17.1024 10.7503 17.1681 10.6982 17.3667C10.531 18.0036 10.2609 19.0337 10.1738 19.3687C10.0171 19.9714 9.6868 20.6734 9.3557 21.2847C9.26773 21.4471 9.35672 21.6478 9.5358 21.6932C10.3532 21.9005 11.2106 22.0075 12.0944 21.9993C17.3417 21.9506 21.8457 17.5384 21.9957 12.2929Z"></path>
                  </svg>