<svg width="18" height="18" viewBox="0 0 18 18" fill="none" xmlns="http://www.w3.org/2000/svg">
<path fill-rule="evenodd" clip-rule="evenodd" d="M2.22914 8.16634C2.22914 4.88715 4.88745 2.22884 8.16664 2.22884C11.4459 2.22884 14.1042 4.88715 14.1042 8.16634C14.1042 9.769 13.4692 11.2234 12.4371 12.2916C12.41 12.312 12.384 12.3345 12.3594 12.3591C12.3348 12.3837 12.3123 12.4097 12.2919 12.4367C11.2237 13.4689 9.76928 14.1038 8.16664 14.1038C4.88745 14.1038 2.22914 11.4455 2.22914 8.16634ZM12.8554 13.8863C11.5792 14.9336 9.94638 15.5622 8.16664 15.5622C4.08204 15.5622 0.770813 12.2509 0.770813 8.16634C0.770813 4.08174 4.08204 0.770508 8.16664 0.770508C12.2513 0.770508 15.5625 4.08174 15.5625 8.16634C15.5625 9.946 14.9339 11.5789 13.8866 12.8551L17.0156 15.9841C17.3004 16.2689 17.3004 16.7305 17.0156 17.0153C16.7309 17.3001 16.2692 17.3001 15.9844 17.0153L12.8554 13.8863Z" fill="#B2B2B2"/>
</svg>
