<svg xmlns="http://www.w3.org/2000/svg" width="20" height="20" viewBox="0 0 20 20" fill="none">
                    <path fill-rule="evenodd" clip-rule="evenodd" d="M3.22916 9.16634C3.22916 5.88715 5.88747 3.22884 9.16666 3.22884C12.4459 3.22884 15.1042 5.88715 15.1042 9.16634C15.1042 10.769 14.4692 12.2234 13.4371 13.2916C13.41 13.312 13.384 13.3345 13.3594 13.3591C13.3348 13.3837 13.3123 13.4097 13.2919 13.4367C12.2237 14.4689 10.7693 15.1038 9.16666 15.1038C5.88747 15.1038 3.22916 12.4455 3.22916 9.16634ZM13.8554 14.8863C12.5792 15.9336 10.9464 16.5622 9.16666 16.5622C5.08206 16.5622 1.77083 13.2509 1.77083 9.16634C1.77083 5.08174 5.08206 1.77051 9.16666 1.77051C13.2513 1.77051 16.5625 5.08174 16.5625 9.16634C16.5625 10.946 15.9339 12.5789 14.8866 13.8551L18.0156 16.9841C18.3004 17.2689 18.3004 17.7305 18.0156 18.0153C17.7309 18.3001 17.2692 18.3001 16.9844 18.0153L13.8554 14.8863Z" fill="#B2B2B2"></path>
                  </svg>