<svg class="matrixSocialIcon" color="white" id="twitter" width="24" height="24" viewBox="0 0 24 24" xmlns="http://www.w3.org/2000/svg">
                    <path fill="currentColor" d="M20.6891 7.5499C20.7025 7.7424 20.7025 7.9349 20.7025 8.12917C20.7025 14.0488 16.196 20.8759 7.95576 20.8759V20.8723C5.52157 20.8759 3.13794 20.1786 1.08875 18.8639C1.4427 18.9065 1.79842 18.9278 2.15504 18.9287C4.17229 18.9305 6.13189 18.2536 7.71891 17.0072C5.80189 16.9709 4.12084 15.7209 3.53358 13.8962C4.20512 14.0257 4.89705 13.9991 5.55616 13.819C3.46616 13.3968 1.96254 11.5605 1.96254 9.42788C1.96254 9.40837 1.96254 9.38974 1.96254 9.37111C2.58528 9.71797 3.28254 9.91046 3.99576 9.93176C2.02729 8.61619 1.42052 5.99748 2.60923 3.95006C4.88374 6.74885 8.23963 8.4503 11.8421 8.63038C11.4811 7.07442 11.9743 5.44393 13.1382 4.35014C14.9425 2.65401 17.7804 2.74095 19.4765 4.54442C20.4798 4.34659 21.4414 3.97845 22.3214 3.45684C21.987 4.49385 21.2871 5.37474 20.3521 5.9345C21.24 5.82982 22.1076 5.59208 22.9246 5.22925C22.3232 6.13055 21.5656 6.91563 20.6891 7.5499Z"></path>
                  </svg>