<svg width="62" height="38" viewBox="0 0 62 38" fill="none" xmlns="http://www.w3.org/2000/svg">
<path d="M59 1H3C1.89543 1 1 1.89543 1 3V35C1 36.1046 1.89543 37 3 37H59C60.1046 37 61 36.1046 61 35V3C61 1.89543 60.1046 1 59 1Z" stroke="#E6E6E6"/>
<path fill-rule="evenodd" clip-rule="evenodd" d="M53.8044 25.9804H51.1155V24.6262H53.4623C53.4623 24.6262 54.318 24.7257 54.318 24.1604C54.318 23.6307 53.0387 23.6718 53.0387 23.6718C53.0387 23.6718 50.9539 23.8512 50.9539 21.9203C50.9539 19.9996 52.8373 20.1093 52.8373 20.1093H55.7295V21.4825H53.4017C53.4017 21.4825 52.5955 21.3221 52.5955 21.9013C52.5955 22.3867 53.6936 22.3177 53.6936 22.3177C53.6936 22.3177 56 22.1491 56 23.9202C56 25.8188 54.5141 25.988 53.9869 25.988C53.8735 25.988 53.8044 25.9804 53.8044 25.9804ZM40.3892 25.9899V20.1194H45.1016V21.4825H41.9089V22.3867H45.0221V23.7213H41.9089V24.7174H45.1016V25.9899H40.3892ZM48.4768 25.9804H45.7872V24.6262H48.1444C48.1444 24.6262 48.9903 24.7257 48.9903 24.1604C48.9903 23.6307 47.711 23.6718 47.711 23.6718C47.711 23.6718 45.6262 23.8512 45.6262 21.9203C45.6262 19.9996 47.5097 20.1093 47.5097 20.1093H50.4117V21.4825H48.0747C48.0747 21.4825 47.2679 21.3221 47.2679 21.9013C47.2679 22.3867 48.3647 22.3177 48.3647 22.3177C48.3647 22.3177 50.6724 22.1491 50.6724 23.9202C50.6724 25.8188 49.1865 25.988 48.6593 25.988C48.5452 25.988 48.4768 25.9804 48.4768 25.9804ZM28.1007 25.9905H26.7817L25.1798 24.2479L23.5688 25.9905H22.6519H17.9486V20.0998H22.6519H23.4476L25.1798 21.9704L26.9225 20.1099H28.0812V20.0998H31.747C31.747 20.0998 33.661 19.8906 33.661 21.8297C33.661 23.5616 33.025 24.0996 31.0725 24.0996H29.5918V25.9905H28.1007ZM26.2075 23.0958L28.0812 25.1445V21.0547L26.2075 23.0958ZM19.4696 24.7168H22.6519L24.143 23.0958L22.6519 21.4831H19.4696V22.3874H22.5717V23.7219H19.4696V24.7168ZM29.5918 22.5661H31.1526C31.6062 22.5661 31.979 22.3177 31.979 22.0091C31.979 21.7017 31.6062 21.452 31.1526 21.452H29.5918V22.5661ZM38.1734 26V24.8556C38.1734 24.8556 38.1115 23.9602 37.1646 23.9602H35.6956V26H34.1837V20.1194H37.8508C37.8508 20.1194 39.7642 19.8906 39.7642 21.8405C39.7642 22.8557 38.9183 23.2137 38.9183 23.2137C38.9183 23.2137 39.6436 23.5521 39.6436 24.5463V26H38.1734ZM35.6956 22.5768H37.2565C37.71 22.5768 38.0822 22.3284 38.0822 22.0198C38.0822 21.7112 37.71 21.4628 37.2565 21.4628H35.6956V22.5768ZM34.5571 17.9503H36.0769V12.0507H34.5571V17.9503ZM22.8532 17.93V12.0501H27.567V13.4226H24.3743V14.3282H27.4868V15.6614H24.3743V16.6576H27.567V17.93H22.8532ZM20.4863 17.9307V13.8706L18.5931 17.9307H17.3542L15.4506 13.8903V17.9307H14.1309H13.9295H12.4691L11.9451 16.6969H9.1858L8.65206 17.9307H7L9.50774 12.0494H11.6329L13.9295 17.4529V12.0494H16.3167L17.9785 15.7014L19.6299 12.0494H22.0171V17.9307H20.4863ZM9.83033 15.1938H11.3006L10.5654 13.4429L9.83033 15.1938ZM50.1679 17.9307L47.7723 13.9999V17.9307H46.4728H46.2297H44.811L44.2772 16.6969H41.5173L40.9927 17.9307H39.6026H39.351H38.6257C38.6257 17.9307 36.5924 17.6417 36.5924 15.1545C36.5924 11.8904 38.8987 12.0196 38.9783 12L40.8415 12.0494V13.3732L39.3119 13.3928C39.3119 13.3928 38.3142 13.3928 38.1923 14.6767C38.1793 14.825 38.1721 14.9593 38.1734 15.0854C38.1793 17.0733 39.9193 16.4567 39.9767 16.4377L41.8496 12.0494H43.9638L46.2297 17.3832V12.0494H48.3653L50.7323 15.9206V12.0494H52.254V17.9307H50.1679ZM42.1618 15.1938H43.6327L42.9074 13.4429L42.1618 15.1938ZM32.3407 17.9307V16.7862C32.3407 16.7862 32.2807 15.8908 31.3338 15.8908H29.8636V17.9307H28.3523V12.0494H32.0188C32.0188 12.0494 33.9321 11.8207 33.9321 13.7711C33.9321 14.7863 33.0862 15.1443 33.0862 15.1443C33.0862 15.1443 33.8214 15.4827 33.8214 16.4776V17.9307H32.3407ZM29.8636 14.5075H31.4244C31.878 14.5075 32.2501 14.2585 32.2501 13.9498C32.2501 13.6419 31.878 13.3928 31.4244 13.3928H29.8636V14.5075Z" fill="#007ECD"/>
</svg>