<svg width="22" height="22" viewBox="0 0 22 22" fill="none" xmlns="http://www.w3.org/2000/svg">
<path fill-rule="evenodd" clip-rule="evenodd" d="M13.7653 2.5118L13.6485 2.559L12.0269 3.29234C11.4352 3.559 10.7602 3.58325 10.1535 3.36506L9.97362 3.29234L8.35109 2.559C8.07609 2.43067 7.77359 2.43067 7.49859 2.54067C7.25501 2.64281 7.06465 2.81903 6.9523 3.04048L6.90275 3.15484L6.2785 4.82317C6.04407 5.43657 5.57778 5.93443 4.98626 6.2038L4.82192 6.2715L3.16275 6.89484C2.87767 7.00484 2.65859 7.21567 2.53942 7.49984C2.44513 7.73555 2.43166 7.99147 2.51056 8.23296L2.55775 8.35234L3.29109 9.9748C3.56838 10.5715 3.59148 11.2527 3.36041 11.8635L3.29109 12.0281L2.55775 13.6415C2.42942 13.9165 2.42942 14.219 2.53942 14.5031C2.64156 14.7389 2.81711 14.9275 3.04472 15.0458L3.16275 15.099L4.82192 15.7223C5.44372 15.9576 5.93459 16.4163 6.20907 17.0136L6.2785 17.1798L6.90275 18.839C7.00267 19.1231 7.22359 19.3431 7.49859 19.4531C7.62692 19.5081 7.77359 19.5356 7.91109 19.5356C8.02109 19.5356 8.13624 19.5202 8.24882 19.4854L8.36025 19.444L9.97362 18.7106C10.5702 18.4333 11.2515 18.4102 11.8622 18.6413L12.0269 18.7106L13.6485 19.444C13.9244 19.5631 14.2269 19.5723 14.5019 19.4531C14.7455 19.3589 14.9352 19.1838 15.0479 18.9568L15.0978 18.839L15.7211 17.1798C15.9563 16.558 16.4227 16.0594 17.0143 15.79L17.1786 15.7223L18.8378 15.099C19.1219 14.989 19.341 14.7781 19.4611 14.5031C19.5546 14.2596 19.5679 14.0025 19.4896 13.7609L19.4428 13.6415L18.7094 12.0281C18.4428 11.4365 18.4185 10.7615 18.6367 10.1546L18.7094 9.9748L19.4428 8.35234C19.5702 8.07734 19.5702 7.77484 19.4611 7.49984C19.3582 7.25627 19.1824 7.06657 18.9555 6.94808L18.8378 6.89484L17.1786 6.2715C16.5652 6.04463 16.0673 5.57897 15.7909 4.98751L15.7211 4.82317L15.0978 3.15484C14.997 2.87984 14.7861 2.65984 14.5019 2.54067C14.2662 2.44638 14.0036 2.43291 13.7653 2.5118ZM15.0607 13.5223C15.0607 12.6698 14.3732 11.9731 13.5207 11.9731C12.6682 11.9731 11.9807 12.6698 11.9807 13.5223C11.9807 14.3748 12.6682 15.0623 13.5207 15.0623C14.3732 15.0623 15.0607 14.3748 15.0607 13.5223ZM13.9426 7.07812C13.8143 6.97729 13.6676 6.93146 13.5209 6.93146C13.3101 6.93146 13.0993 7.03229 12.9618 7.21562L7.9201 13.9348C7.80093 14.0906 7.7551 14.274 7.7826 14.4573C7.8101 14.6498 7.91093 14.8056 8.0576 14.9248C8.3601 15.1448 8.81843 15.0806 9.03843 14.7781L14.0801 8.05896C14.3184 7.74729 14.2543 7.30729 13.9426 7.07812ZM10.0191 8.48062C10.0191 7.62812 9.33158 6.93146 8.47908 6.93146C7.62658 6.93146 6.93908 7.62812 6.93908 8.48062C6.93908 9.33313 7.62658 10.0206 8.47908 10.0206C9.33158 10.0206 10.0191 9.33313 10.0191 8.48062Z" fill="#17B31B"/>
<path fill-rule="evenodd" clip-rule="evenodd" d="M16.3527 2.51116C16.0944 1.94205 15.6216 1.48269 15.0428 1.23901C14.4103 0.982345 13.6861 0.991512 13.0628 1.27568L11.4128 2.02735L11.2929 2.0677C11.0494 2.13472 10.7868 2.11901 10.5511 2.00901L8.93774 1.27568L8.73733 1.19648C8.46783 1.10261 8.18975 1.05568 7.91108 1.05568C7.59025 1.05568 7.26025 1.11985 6.95775 1.23901C6.32525 1.50485 5.82016 2.02735 5.58275 2.66901L4.95941 4.32818L4.91268 4.43506C4.79111 4.67694 4.58358 4.86443 4.32691 4.96068L2.66774 5.58401L2.50988 5.64906C1.9407 5.90727 1.48135 6.37922 1.24691 6.95901C0.981078 7.59151 0.990245 8.31568 1.27349 8.93901L2.01691 10.5523L2.06405 10.6766C2.14262 10.9297 2.12691 11.2058 2.01691 11.4415L1.27349 13.064L1.20304 13.2364C0.99085 13.8183 1.00524 14.469 1.24691 15.044C1.50266 15.6765 2.02608 16.1715 2.66774 16.419L4.32691 17.0423L4.4338 17.0891C4.67567 17.2105 4.86316 17.417 4.95941 17.6656L5.58275 19.334L5.64759 19.4916C5.90522 20.0595 6.37795 20.5112 6.95775 20.7548C7.59025 21.0206 8.31441 21.0023 8.93774 20.7181L10.5511 19.9848L10.6754 19.9377C10.9286 19.8591 11.2059 19.8748 11.4494 19.9848L13.0628 20.7181L13.2351 20.7891C13.817 21.0033 14.4677 20.9965 15.0428 20.7548C15.6744 20.489 16.1794 19.9756 16.4178 19.334L17.0411 17.6656L17.0878 17.5618C17.2094 17.3261 17.4169 17.1386 17.6736 17.0423L19.3328 16.4098L19.4906 16.345C20.0596 16.0881 20.5182 15.6238 20.7527 15.044C21.0194 14.4115 21.0011 13.6873 20.7261 13.064L19.9836 11.4415L19.9364 11.3177C19.8578 11.0665 19.8736 10.796 19.9836 10.5523L20.7261 8.93901L20.7968 8.76459C21.0096 8.1772 20.9951 7.53401 20.7527 6.95901C20.4969 6.32651 19.9744 5.82235 19.3328 5.58401L17.6736 4.96068L17.5667 4.91395C17.3248 4.79239 17.1374 4.58485 17.0411 4.32818L16.4178 2.66901L16.3527 2.51116ZM13.6485 2.55901L13.7653 2.51181C14.0035 2.43292 14.2662 2.44639 14.5019 2.54068C14.7861 2.65985 14.9969 2.87985 15.0978 3.15485L15.7211 4.82318L15.7909 4.98752C16.0673 5.57898 16.5652 6.04464 17.1786 6.27151L18.8378 6.89485L18.9555 6.94809C19.1824 7.06658 19.3582 7.25628 19.4611 7.49985C19.5702 7.77485 19.5702 8.07735 19.4428 8.35235L18.7094 9.97481L18.6367 10.1547C18.4185 10.7615 18.4428 11.4365 18.7094 12.0281L19.4428 13.6415L19.4896 13.7609C19.5679 14.0026 19.5546 14.2596 19.4611 14.5031C19.341 14.7781 19.1219 14.989 18.8378 15.099L17.1786 15.7223L17.0142 15.7901C16.4227 16.0595 15.9563 16.558 15.7211 17.1798L15.0978 18.839L15.0479 18.9568C14.9352 19.1838 14.7455 19.3589 14.5019 19.4531C14.2269 19.5723 13.9244 19.5631 13.6485 19.444L12.0269 18.7106L11.8622 18.6413C11.2515 18.4103 10.5702 18.4334 9.97361 18.7106L8.36024 19.444L8.24881 19.4854C8.13623 19.5202 8.02108 19.5356 7.91108 19.5356C7.77358 19.5356 7.62691 19.5081 7.49858 19.4531C7.22358 19.3431 7.00266 19.1231 6.90275 18.839L6.27849 17.1798L6.20906 17.0136C5.93458 16.4163 5.44371 15.9576 4.82191 15.7223L3.16275 15.099L3.04471 15.0458C2.8171 14.9275 2.64155 14.7389 2.53941 14.5031C2.42941 14.219 2.42941 13.9165 2.55775 13.6415L3.29108 12.0281L3.3604 11.8635C3.59147 11.2527 3.56837 10.5715 3.29108 9.97481L2.55775 8.35235L2.51055 8.23297C2.43165 7.99148 2.44512 7.73556 2.53941 7.49985C2.65858 7.21568 2.87766 7.00485 3.16275 6.89485L4.82191 6.27151L4.98625 6.20381C5.57777 5.93445 6.04406 5.43659 6.27849 4.82318L6.90275 3.15485L6.95229 3.04049C7.06464 2.81904 7.255 2.64282 7.49858 2.54068C7.77358 2.43068 8.07608 2.43068 8.35108 2.55901L9.97361 3.29235L10.1535 3.36507C10.7602 3.58326 11.4352 3.55901 12.0269 3.29235L13.6485 2.55901Z" fill="#17B31B"/>
</svg>
