<svg width="16" height="16" viewBox="0 0 16 16" fill="none" xmlns="http://www.w3.org/2000/svg">
<g clip-path="url(#clip0_137_3)">
<path d="M1.455 0C0.651002 0 0 0.650002 0 1.455V14.545C0 15.349 0.650002 16 1.455 16H14.545C15.349 16 16 15.35 16 14.545V1.455C16 0.651002 15.35 0 14.545 0H1.455ZM1.455 1.455H14.545V14.545H1.455V1.455ZM8 3.636C5.59 3.636 3.636 5.59 3.636 8C3.636 10.41 5.59 12.364 8 12.364C10.41 12.364 12.364 10.41 12.364 8C12.364 5.59 10.41 3.636 8 3.636Z" fill="#17B31B"/>
</g>
<defs>
<clipPath id="clip0_137_3">
<rect width="16" height="16" fill="white"/>
</clipPath>
</defs>
</svg>
